<svg width="1440" height="423" viewBox="0 0 1440 423" fill="none" xmlns="http://www.w3.org/2000/svg">
<g opacity="0.3">
<path d="M1169.29 280.614C1322.57 313.113 1441.14 193.505 1485.56 120.092V508.898H-44.0001V3C-24.8653 16.3438 42.5238 85.5649 159.002 255.699C275.481 425.832 520.997 351.274 629.195 292.728C810.759 163.373 954.956 175.469 1038.8 214.431C1083.34 235.124 1120.97 270.369 1169.29 280.614Z" stroke="#6CE9A6" stroke-width="3"/>
<path d="M1171.38 306.635C1324.65 339.134 1443.23 219.526 1487.65 146.113V534.918H-41.9126V29.0205C-22.7778 42.3643 44.6113 111.585 161.09 281.719C277.568 451.853 523.085 377.294 631.283 318.748C812.847 189.393 957.044 201.489 1040.89 240.451C1085.42 261.144 1123.06 296.389 1171.38 306.635Z" stroke="#6CE9A6" stroke-width="3"/>
<path d="M1173.47 332.655C1326.74 365.154 1445.32 245.546 1489.74 172.133V560.939H-39.8252V55.0409C-20.6904 68.3847 46.6987 137.606 163.177 307.74C279.656 477.873 525.172 403.315 633.37 344.769C814.934 215.414 959.131 227.51 1042.98 266.471C1087.51 287.165 1125.15 322.41 1173.47 332.655Z" stroke="#6CE9A6" stroke-width="3"/>
<path d="M1175.55 358.676C1328.83 391.175 1447.4 271.567 1491.83 198.153V586.959H-37.7378V81.0614C-18.603 94.4052 48.7861 163.626 165.265 333.76C281.743 503.894 527.259 429.335 635.458 370.789C817.022 241.434 961.218 253.53 1045.07 292.492C1089.6 313.185 1127.24 348.43 1175.55 358.676Z" stroke="#6CE9A6" stroke-width="3"/>
<path d="M1177.64 384.696C1330.92 417.195 1449.49 297.587 1493.91 224.174V612.98H-35.6504V107.082C-16.5156 120.426 50.8736 189.647 167.352 359.78C283.83 529.914 529.347 455.356 637.545 396.81C819.109 267.455 963.306 279.551 1047.15 318.512C1091.69 339.206 1129.32 374.451 1177.64 384.696Z" stroke="#6CE9A6" stroke-width="3"/>
<path d="M1179.73 410.716C1333 443.216 1451.58 323.608 1496 250.194V639H-33.5629V133.102C-14.4281 146.446 52.961 215.667 169.439 385.801C285.918 555.935 531.434 481.376 639.633 422.83C821.197 293.475 965.393 305.571 1049.24 344.533C1093.77 365.226 1131.41 400.471 1179.73 410.716Z" stroke="#6CE9A6" stroke-width="3"/>
</g>
</svg>
